<?xml version="1.0" encoding="UTF-8" standalone="no"?>
<!-- Created with Inkscape (http://www.inkscape.org/) -->

<svg
   xmlns:dc="http://purl.org/dc/elements/1.1/"
   xmlns:cc="http://creativecommons.org/ns#"
   xmlns:rdf="http://www.w3.org/1999/02/22-rdf-syntax-ns#"
   xmlns:svg="http://www.w3.org/2000/svg"
   xmlns="http://www.w3.org/2000/svg"
   xmlns:sodipodi="http://sodipodi.sourceforge.net/DTD/sodipodi-0.dtd"
   xmlns:inkscape="http://www.inkscape.org/namespaces/inkscape"
   width="744.09448819"
   height="1052.3622047"
   id="svg2"
   version="1.1"
   inkscape:version="0.48.1 r9760"
   sodipodi:docname="New document 1">
  <defs
     id="defs4" />
  <sodipodi:namedview
     id="base"
     pagecolor="#ffffff"
     bordercolor="#666666"
     borderopacity="1.0"
     inkscape:pageopacity="0.0"
     inkscape:pageshadow="2"
     inkscape:zoom="0.35"
     inkscape:cx="375"
     inkscape:cy="520"
     inkscape:document-units="px"
     inkscape:current-layer="layer1"
     showgrid="false"
     inkscape:window-width="889"
     inkscape:window-height="538"
     inkscape:window-x="183"
     inkscape:window-y="201"
     inkscape:window-maximized="0" />
  <metadata
     id="metadata7">
    <rdf:RDF>
      <cc:Work
         rdf:about="">
        <dc:format>image/svg+xml</dc:format>
        <dc:type
           rdf:resource="http://purl.org/dc/dcmitype/StillImage" />
        <dc:title></dc:title>
      </cc:Work>
    </rdf:RDF>
  </metadata>
  <g
     inkscape:label="Layer 1"
     inkscape:groupmode="layer"
     id="layer1">
    <path
       style="fill:none;stroke:#000000;stroke-width:1px;stroke-linecap:butt;stroke-linejoin:miter;stroke-opacity:1"
       d="m 45.714286,709.50504 c 3.809524,0 7.693026,-0.74711 11.428571,0 1.320715,0.26414 1.652466,2.2548 2.857143,2.85714 1.271364,0.63568 10.121751,-0.4356 11.428571,0 1.277754,0.42592 1.904762,1.90476 2.857143,2.85715 1.904762,0.95238 3.626053,2.43949 5.714286,2.85714 2.801659,0.56033 5.769769,-0.56033 8.571429,0 4.176466,0.83529 7.252104,4.87899 11.428571,5.71428 2.80166,0.56034 5.76977,-0.56033 8.57143,0 2.08823,0.41765 3.62605,2.4395 5.71428,2.85715 4.66944,0.93388 9.52381,0 14.28572,0 1.90476,0 3.86639,-0.46198 5.71428,0 2.06601,0.5165 3.64829,2.34064 5.71429,2.85714 1.84789,0.46197 3.8664,-0.46197 5.71429,0 2.066,0.5165 3.62605,2.4395 5.71428,2.85714 2.80166,0.56033 5.79959,-0.69296 8.57143,0 1.30666,0.32667 1.57939,2.43123 2.85714,2.85715 1.80702,0.60233 3.80953,0 5.71429,0 2.85714,0 5.71428,0 8.57143,0 1.90476,0 3.90727,-0.60234 5.71428,0 1.27776,0.42591 1.55049,2.53047 2.85715,2.85714 2.77183,0.69296 5.71428,0 8.57142,0 1.90477,0 3.80953,0 5.71429,0 1.90476,0 3.8664,-0.46197 5.71429,0 2.066,0.5165 3.69398,2.18371 5.71428,2.85714 0.90351,0.30117 1.90476,0 2.85714,0 2.85715,0 5.71429,0 8.57143,0 8.57143,0 17.14286,0 25.71429,0 11.42857,0 22.85714,0 34.28571,0 1.12947,0 13.06548,0.61012 14.28572,0 2.40935,-1.20468 3.15878,-4.86245 5.71428,-5.71428 1.80702,-0.60234 4.12943,1.05657 5.71429,0 1.77192,-1.18129 1.08522,-4.53301 2.85714,-5.71429 1.58486,-1.05657 4.12943,1.05657 5.71429,0 1.77192,-1.18128 1.35129,-4.20844 2.85714,-5.71429 6.93943,-6.93943 4.19549,0.84962 8.57143,-5.71428 0.3548,-0.53221 5.5312,-11.24549 5.71428,-11.42857 1.50585,-1.50585 4.43654,-1.15348 5.71429,-2.85715 1.80702,-2.40935 1.05013,-6.16207 2.85714,-8.57142 1.27776,-1.70368 4.20844,-1.3513 5.71429,-2.85715 0.67343,-0.67343 -0.42592,-2.0053 0,-2.85714 1.53567,-3.07134 3.94758,-5.62692 5.71428,-8.57143 1.09567,-1.82611 1.57939,-4.01061 2.85715,-5.71428 1.61624,-2.155 4.32836,-3.40443 5.71428,-5.71429 1.54951,-2.58251 1.51028,-5.87769 2.85715,-8.57143 9.63274,-14.44911 2.65689,-2.35652 8.57142,-17.14286 0.79091,-1.97727 2.4395,-3.62605 2.85715,-5.71428 0.56033,-2.80166 0,-5.71429 0,-8.57143 0,-8.57143 0,-17.14286 0,-25.71429 0,-10.47619 0,-20.95238 0,-31.42857 0,-1.90476 0,-3.80952 0,-5.71428 0,-1.90477 0.46197,-3.8664 0,-5.71429 -0.5165,-2.066 -2.4395,-3.62605 -2.85715,-5.71428 -0.56033,-2.80166 0.46972,-5.75316 0,-8.57143 -0.49511,-2.97072 -2.36202,-5.60072 -2.85714,-8.57143 -0.78285,-4.69712 1.15493,-9.66599 0,-14.28572 -0.5165,-2.066 -1.90476,-3.80952 -2.85714,-5.71428 0,-2.85714 0.56033,-5.76977 0,-8.57143 -0.41765,-2.08823 -2.4395,-3.62605 -2.85714,-5.71429 -0.56034,-2.80166 0.56033,-5.76977 0,-8.57142 -0.41765,-2.08824 -2.4395,-3.62606 -2.85715,-5.71429 -0.55458,-2.77291 0,-19.46686 0,-22.85714 0,-1.90477 0.37356,-3.84652 0,-5.71429 -0.59064,-2.95321 -2.36202,-5.60071 -2.85714,-8.57143 -0.46971,-2.81827 0.69296,-5.79959 0,-8.57143 -0.32666,-1.30665 -1.90476,-1.90476 -2.85714,-2.85714 -0.95238,-1.90476 -2.50704,-3.61367 -2.85715,-5.71428 -0.62628,-3.7577 0,-7.61905 0,-11.42858 0,-6.66666 0,-13.33333 0,-20 0,-2.85714 0.69296,-5.79959 0,-8.57142 -0.32666,-1.30666 -2.2548,-1.65247 -2.85714,-2.85715 -0.42592,-0.85183 0,-1.90476 0,-2.85714 0,-1.90476 0.60234,-3.90727 0,-5.71429 -0.42592,-1.27775 -2.2548,-1.65246 -2.85714,-2.85714 -0.42592,-0.85183 0,-1.90476 0,-2.85714 0,-0.95238 0,-1.90476 0,-2.85714"
       id="path2985"
       inkscape:connector-curvature="0" />
    <path
       style="fill:none;stroke:#000000;stroke-width:1px;stroke-linecap:butt;stroke-linejoin:miter;stroke-opacity:1"
       d="m 414.28571,409.50504 c 0,14.28571 0,28.57143 0,42.85714 0,2.85715 -0.46971,5.75316 0,8.57143 1.35371,8.12224 3.04956,7.62388 5.71429,14.28572 2.23703,5.59257 4.05953,11.35122 5.71429,17.14285 1.07876,3.77568 1.47836,7.75183 2.85714,11.42857 1.4955,3.988 4.68128,7.29657 5.71428,11.42858 0.92395,3.69578 0,7.61904 0,11.42857 0,4.7619 -0.52586,9.55293 0,14.28571 0.43364,3.90275 2.00531,7.59531 2.85715,11.42857 1.05346,4.74057 1.80368,9.54515 2.85714,14.28572 0.85184,3.83326 2.37009,7.53212 2.85714,11.42857 4.24888,33.99103 -6.16339,-14.87811 2.85715,25.71428 1.70367,7.66652 3.55675,15.30579 5.71428,22.85715 0.82738,2.89581 2.43123,5.59 2.85714,8.57143 0.94281,6.59966 -1.09599,13.42404 0,20 0.49512,2.97071 2.36203,5.60071 2.85715,8.57142 0.46971,2.81827 -0.46971,5.75316 0,8.57143 0.49512,2.97072 2.36202,5.60072 2.85714,8.57143 0.46971,2.81827 -0.56033,5.76977 0,8.57143 0.41765,2.08823 2.34064,3.64828 2.85714,5.71429 0.92395,3.69578 -0.92394,7.73279 0,11.42857 0.5165,2.066 2.34064,3.64828 2.85715,5.71428 0.92394,3.69578 -1.20468,7.81454 0,11.42857 0.42591,1.27776 2.53047,1.55049 2.85714,2.85715 0.69296,2.77183 0,5.71428 0,8.57143 0,0.95238 -0.42592,2.0053 0,2.85714 6.53801,13.07602 -1.18421,-12.12405 5.71428,8.57143 0.58388,1.75162 -0.58387,3.96266 0,5.71428 0.67344,2.02031 2.34065,3.64828 2.85715,5.71429 0.46197,1.84789 -0.85184,4.01061 0,5.71428 0.42591,0.85184 2.1837,-0.67343 2.85714,0 0.67344,0.67344 -0.67344,2.18371 0,2.85715 1.34687,1.34687 4.01061,-0.85184 5.71429,0 1.20467,0.60234 1.57939,2.43122 2.85714,2.85714 1.15629,0.38543 21.86973,0 22.85714,0 12.38095,0 24.76191,0 37.14286,0 5.71428,0 11.42857,0 17.14286,0 3.80952,0 7.64234,-0.42069 11.42857,0 9.65301,1.07256 18.89256,4.90771 28.57143,5.71429 6.64363,0.55363 13.35027,-0.47498 20,0 6.71723,0.4798 13.28548,2.34064 20,2.85714 10.44533,0.80349 20.95238,0 31.42857,0 20,0 40,0 60,0 3.80952,0 7.61904,0 11.42857,0 0.95238,0 2.18371,0.67343 2.85714,0 3.80953,-3.80953 -4.7619,-2.85714 2.85714,-2.85714"
       id="path2987"
       inkscape:connector-curvature="0" />
    <text
       xml:space="preserve"
       style="font-size:40px;font-style:normal;font-weight:normal;line-height:125%;letter-spacing:0px;word-spacing:0px;fill:#000000;fill-opacity:1;stroke:none;font-family:Sans"
       x="180"
       y="352.36218"
       id="text2989"
       sodipodi:linespacing="125%"><tspan
         sodipodi:role="line"
         id="tspan2991"
         x="180"
         y="352.36218">HolaMundo</tspan></text>
  </g>
</svg>
